<svg width="476" height="356" viewBox="0 0 476 356" fill="none" xmlns="http://www.w3.org/2000/svg">
<path d="M163.323 54.5639L476 0L445.856 211L22.6512 197.424L8 37.7891L163.323 54.5639Z" fill="#977652"/>
<path d="M200.385 110C200.385 110 455.783 201.777 458.57 203.525L464.189 244.008C323.246 244.775 36.0945 252.099 36.0945 252.099L9 203.525L200.385 110Z" fill="#FFFF87"/>
<path d="M182.301 144.595L226.782 133.215L242.689 171.79L196.307 184.545L182.301 144.595Z" fill="#FFFED2"/>
<path d="M347.188 240.415L443.83 243.842L437.684 321.999L44 239.162H277.077L272.047 232.069L273.24 224.682L281.78 218.089L288.973 226.78L286.791 232.069L283.094 239.162H306.866L322.007 236.27L326.991 229.134L338.004 232.384L347.188 240.415Z" fill="#EAC338"/>
<path d="M152.193 243C251.485 260.651 450.765 296.403 453.558 298.196L459 338.65C402.161 338.966 242.479 355.817 242.479 355.817L23.3306 338.65C23.3306 338.65 3.70721 304.297 0.900635 291.599L152.193 243Z" fill="#DCA919"/>
<path d="M84.3095 212.91L34 201.324V287.36L84.3095 298.987V212.91Z" fill="#967E56"/>
<path d="M93.0717 194L33.9993 201.324L84.3087 212.951L139.566 194.232L93.0717 194Z" fill="#AB9165"/>
<path d="M84.3088 212.951L138.739 194.149L139.566 279.334L84.3088 299.068V212.951Z" fill="#9D8459"/>
<path d="M66.2942 233.294L41.5533 300.011L34.4172 302V292.055L54.9226 230.362L63.4513 224.854L66.2942 233.294Z" fill="#86540E"/>
<path d="M36.0662 256.86L49.7214 246.845L62.2702 248.938C62.2702 248.938 67.5018 267.599 67.5018 268.222L78.0454 264.67L69.2992 235.734L50.4583 232.512L31.7197 246.845L36.0662 256.86Z" fill="#78B978"/>
<path d="M172.81 135L176 156.634L133.293 158L130.5 135H172.81Z" fill="#643704"/>
<path d="M175.996 156.598L181 195.249L139.906 198.406L133.484 157.984L175.996 156.598Z" fill="#FEBE77"/>
<path d="M197.988 221.066L207.447 262.818L188.605 268.699L177.062 226.852L197.988 221.066Z" fill="#FEBE77"/>
<path d="M110.216 282.349L107.154 236.363L88 235V279.083L110.216 282.349Z" fill="#CE9759"/>
<path d="M188.584 268.616L177.188 226.93L173.504 228.252L176.322 266.465L188.584 268.616Z" fill="#CE9759"/>
<path d="M140 198.511L133.762 157.969L99.6582 183.595L101.573 202.481L140 198.511Z" fill="#CE9759"/>
<path d="M246.106 283.395C223.685 278.697 178.351 267.909 177.204 267L134.207 277.863L198.594 303.164L221.416 295.488L228.177 292.968L246.106 283.395Z" fill="#793F6F"/>
<path d="M121 293.137L199.726 320.978L198.602 303.156L121 272.631V293.137Z" fill="#6F3264"/>
<path d="M199.714 321.002L221.486 310.892L221.443 295.282L198.594 303.152L199.714 321.002Z" fill="#632558"/>
<path d="M193.682 192.59L198.604 221.157L174.205 227.889L177.725 267.033C164.5 270.283 134.187 277.867 134.187 277.867L128.204 232.821L107.017 236.346L105.455 202.153L193.682 192.59Z" fill="#4EA576"/>
<path d="M228.222 310.841L246.111 301.995V283.391L228.222 292.934V310.841Z" fill="#632558"/>
<path d="M221.444 308.479L228.222 310.778V292.947L169.524 275.928L221.444 295.293V308.479Z" fill="#6D3163"/>
<path d="M127.92 232.859L131.868 278.969L110.204 282.37L107 236.312L127.92 232.859Z" fill="#FEBE77"/>
<path d="M88 235.259V203.981L105.459 202.146L107.017 236.393L88 235.259Z" fill="#459D6E"/>
<path d="M174.192 228.013L171.944 209.781L177.196 227.055L174.192 228.013Z" fill="#459D6E"/>
<path d="M131.637 276.811L127.266 225.733L134.195 277.867L131.637 276.811Z" fill="#459D6E"/>
<path d="M133.882 157.841L130.534 135L95.0002 146.275L99.5742 183.749L133.882 157.841Z" fill="#643704"/>
</svg>
